<svg xmlns="http://www.w3.org/2000/svg" viewBox="0 0 620.14 167.66"><defs><style>.cls-1{fill:#fff;}</style></defs><g id="Layer_2" data-name="Layer 2"><g id="RGB"><path class="cls-1" d="M311.81,151.76a15.94,15.94,0,0,1-15.9,15.9H15.9A15.94,15.94,0,0,1,0,151.76V65.92c0-8.75,7.05-17.08,15.68-18.53L296.14.22c8.62-1.45,15.67,4.51,15.67,13.26Z"/></g><g id="Exportversion"><path class="cls-1" d="M361.09,144.67H356L352.44,132l-3.59,12.65h-5.09l-5-19.76h5l2.91,13.6,3.59-13.6h4.39l3.7,13.6,2.88-13.6h4.93Z"/><path class="cls-1" d="M368.62,124.91h14.62v3.83h-9.69v3.59h9v3.75h-9v4.7H384.1v3.89H368.62Z"/><path class="cls-1" d="M404.43,128.8v15.87h-5V128.8H394.3v-3.89h15.26v3.89Z"/><path class="cls-1" d="M412.3,124.91h14.62v3.83h-9.69v3.59h9v3.75h-9v4.7h10.55v3.89H412.3Z"/><path class="cls-1" d="M444.61,130.79a7,7,0,0,0-5.18-2.47c-2,0-2.94,1.18-2.94,2.1,0,1.07.84,1.57,2.52,1.82l2.18.31c5.16.73,7.29,2.3,7.29,5.68,0,4.18-3.34,6.89-9,6.89-4.62,0-7-1.65-9-4l3.75-2.38a7.62,7.62,0,0,0,5.72,2.49c1.45,0,3.63-.64,3.63-2.3,0-1.4-1.67-1.79-3.44-2l-2.27-.31c-3.47-.48-6.3-2.1-6.3-5.57,0-3.89,2.89-6.61,8-6.61a12,12,0,0,1,8.71,3.75Z"/><path class="cls-1" d="M460.38,128.8v15.87h-5V128.8h-5.15v-3.89H465.5v3.89Z"/><path class="cls-1" d="M475.83,144.67V124.91h4.93v19.76Z"/><path class="cls-1" d="M493.61,128.8v15.87h-5V128.8h-5.15v-3.89h15.25v3.89Z"/><path class="cls-1" d="M498,144.67V140h4.42v4.67Z"/><path class="cls-1" d="M527.41,130.79a7,7,0,0,0-5.18-2.47c-2,0-2.94,1.18-2.94,2.1,0,1.07.84,1.57,2.52,1.82l2.18.31c5.15.73,7.28,2.3,7.28,5.68,0,4.18-3.33,6.89-9,6.89-4.62,0-7-1.65-9-4l3.75-2.38a7.58,7.58,0,0,0,5.71,2.49c1.46,0,3.64-.64,3.64-2.3,0-1.4-1.68-1.79-3.44-2l-2.27-.31c-3.47-.48-6.3-2.1-6.3-5.57,0-3.89,2.88-6.61,8-6.61a12,12,0,0,1,8.71,3.75Z"/><path class="cls-1" d="M552.44,144.67s0-10.92.11-14.78l-4.12,14.78h-4.28l-4.09-14.78c.09,2.77.11,14.78.11,14.78h-4.81V124.91h7.22l3.73,13.83L550,124.91h7.23v19.76Z"/><path class="cls-1" d="M574.17,144.67l-1-3.16h-7.28l-1,3.16h-5.27L567,124.91h5.15l7.28,19.76Zm-4.68-15.06L567.05,138h5Z"/><path class="cls-1" d="M591.3,124.91c2.94,0,7.59.75,7.59,6.41,0,3.36-1.9,4.7-4.06,5.46l4.56,7.89H594l-4-7h-3.08v7h-5V124.91Zm-4.39,9H591c2.83,0,3-2.13,3-2.74,0-2.58-2.07-2.64-2.94-2.64h-4.11Z"/><path class="cls-1" d="M610.79,128.8v15.87h-5V128.8h-5.16v-3.89h15.26v3.89Z"/><path class="cls-1" d="M615.72,144.67V140h4.42v4.67Z"/><path d="M74.37,90.12H56.83L44.56,144.67h-17L39.86,90.12H21.26L24.62,77H77.73Z"/><path d="M131.52,89.93H99.4l-3,13.14h31l-2.78,12.36h-31l-3.74,16.4h36.91L124,144.67H70.35L85.79,77h48.7Z"/><path d="M184.63,97.6c-1.92-7.67-10.35-9.49-15.53-9.49-7.19,0-9.59,4-9.59,6.33,0,3.64,3.45,5,8.73,6.8l7.19,2.5c11.6,4,18.4,9.58,18.4,19.84,0,10.93-9.49,22.82-29.33,22.82-17.35,0-27.23-7.38-31.54-15.63l14.86-9.3c.28.87,3.35,11.41,17,11.41,9.58,0,11.5-5.75,11.5-7.86,0-2.4-1.44-4.7-9.4-7.48l-9.68-3.35c-4.22-1.44-14.67-6.14-14.67-17.45,0-10.07,8.34-21.48,28-21.48,15.82,0,23.1,6.14,28.09,14.19Z"/><path d="M252.83,144.89h-6.32L257.44,98h6.32Z"/><path d="M293.58,102.9H280.64L275,127.44a34.41,34.41,0,0,0-1.15,7.48c0,3.83,1.92,5.46,6.42,5.46a28.77,28.77,0,0,0,5.18-.48l-1.15,5.28a29.21,29.21,0,0,1-6.14.67c-6.9,0-11-3.55-11-9.3a36,36,0,0,1,1.24-8l5.95-25.69H266L267.12,98h8.34l3.83-16.78,7-3L281.79,98h12.94Z"/><polygon points="205.06 76.99 201.7 90.12 220.3 90.12 208.03 144.67 225 144.67 237.27 90.12 265.6 90.12 268.66 76.99 205.06 76.99"/></g></g></svg>